<svg version="1" xmlns="http://www.w3.org/2000/svg" width="666.667" height="666.667" viewBox="0 0 500.000000 500.000000"><path d="M442.5 32.7c-18.5 4.3-42.6 15.6-68 31.8-12.8 8.2-28.6 20.9-42.7 34.4L317.2 113l-6.9-1.4c-15.6-3.2-26.3-4.1-50.8-4.1-25.5 0-33.4.7-53.7 4.7l-10.8 2.1-4.6-3.9c-2.5-2.2-6-4.7-7.7-5.8-1.8-1-5.6-3.4-8.4-5.2-2.9-1.9-5.6-3.4-6-3.4-.3 0-3.4-1.7-6.7-3.8-15.2-9.6-37.8-21.8-46.6-25.1-1.9-.7-6.6-2.6-10.5-4.1-30.9-12.5-50.3-16.4-64.2-12.8-6 1.5-12.7 7.8-14.1 13.3-2 7.4-3.4 27.8-2.7 38C25 124.6 31.6 175.1 35 190c1.1 4.7 3.2 12.7 4.6 17.7l2.6 9.3-5.2 8.1c-13.7 21.4-20.4 44.1-20.3 68.9.2 35 13.3 64 41.8 92.5 32.3 32.4 78.4 53.9 134 62.5 49.5 7.7 102.7 3.4 149.6-12C428.7 408.5 484 348 484 281.5c0-27-8.9-52.6-26.2-75.7l-7-9.2 3.5-12.6c4.8-17.1 11.5-53.7 13.6-74.5 3.5-35.1 3.4-49.2-.4-62.1-3.4-11.6-13.3-17.4-25-14.7zM447 74c1.2 2.3-.1 21.7-2.5 34.8-2.2 12.8-7.7 32.6-15.6 56.8-8.3 25.5-8.7 27.5-6.4 31 1.4 2.2 2.3 2.5 6.2 2.3 3.9-.3 4.8 0 6.4 2.3l1.9 2.6-6.7 3.8c-14.1 7.8-26 16.6-27.4 20.3-1.9 4.9 4 9.2 8 5.8 4.3-3.7 25.9-9.7 36-10l5.6-.2 3.7 7c4.1 7.7 9.3 21.1 10.4 26.9l.7 3.8-15.4-.3c-8.5-.2-21.2.2-28.3.8-11 1-13.2 1.5-15.2 3.4-1.3 1.2-2.4 2.6-2.4 3 0 2.1 3.5 3.7 9.2 4.3 7.7.9 17.2 3 25.8 5.8 8.2 2.6 25.1 9.7 26.8 11.3 3.1 2.9-4 29.7-11.7 44-5.7 10.6-7.5 13.5-8.3 13.5-.3 0-6.4-6.2-13.5-13.7-21.1-22.6-29.8-31.3-31.5-31.3-2.2 0-4.8 2.7-4.8 5 0 1 3.6 7.7 8 15 4.4 7.2 10.1 17.2 12.5 22.1 2.5 4.9 6.6 12.2 9.2 16.1l4.6 7.2-7.9 7.5c-37.8 35.7-93.3 58.3-157.8 64.2-17.5 1.6-50 .6-68.1-2.1-17.5-2.6-39.6-8-54-13.2-24.3-8.8-55.5-26.3-55.5-31 0-8.3 6.8-35.1 15-59.3 2.2-6.5 4-12.8 4-13.9 0-2.6-2.8-5.6-5.2-5.6-3.4 0-5.3 1.7-14.5 12.7-10.1 12.2-14.6 18.7-22.2 32.1-4.3 7.6-5.6 9.1-6.7 8.1-4.4-3.7-16.3-23.4-20.4-33.8l-2.1-5.5 8.8-8.5c9.7-9.5 21.6-19.5 33.8-28.6 10.9-8.1 15.5-12.5 15.5-15 0-2.7-1.8-4.5-4.6-4.5-4.1 0-27.4 9-43 16.6-8.6 4.1-15.8 7.4-16 7.1-.3-.3 0-5.2.6-10.9 1.1-10.7 4-23.2 5.8-25 1.6-1.6 26.8-5.8 34.7-5.8 3.9 0 9.9-.5 13.5-1.1 3.6-.5 9.2-1 12.5-1.1 7.9-.1 9.7-1.1 9.3-5.1-.2-2.5-1-3.6-3.8-4.9-5.7-2.8-23.3-5.8-38.7-6.7-7.9-.5-14.7-1.2-15-1.5-.3-.3.9-2.8 2.7-5.6 3-4.6 3.6-5.1 5.9-4.5 7.9 2 9.6 1.8 13-1.6 3.1-3 3.3-3.6 2.7-7.9-.3-2.5-2.2-9.4-4.1-15.4-1.9-6-3.5-11.4-3.5-12 0-.6-1.6-6.1-3.6-12.1-6.7-20.7-11.7-52.5-11.2-70.5.3-9.5.3-9.5 3-9.8 1.6-.2 6.2 1.5 12 4.4 18.5 9.3 37.1 22.4 55.2 38.9 11.7 10.7 14.6 14.4 14.6 18.7 0 2.7.4 2.8 17 3.1 13 .3 17.6-2 29.8-14.8 5-5.2 9.3-10.3 9.7-11.4.6-2 6.9-4.6 8.7-3.5.4.3.8 4.3.8 9 0 9.1 3.2 26.4 5.6 30.1.9 1.4 2.4 2.3 3.9 2.3 4.5 0 5.2-3 5.8-22.5.7-20.2 1-22.3 4.1-23 4.7-1.1 24.1-2.4 24.8-1.7.4.4 1.1 10.1 1.6 21.5.8 19.5 1 20.9 3 23 2.1 2 2.4 2.1 5 .7 4.4-2.5 5.5-7.4 6-27.9l.4-18.4 12.2.8c6.6.4 14.4 1 17.1 1.4l5 .6-.2 6.5c-.1 3.6-1.2 12.5-2.4 19.8-2.1 12.7-2.1 13.3-.4 15.2 2.5 2.7 7.1 2.6 8.9-.3 3.1-5 8.6-27.9 8.6-36.5 0-.7 4.3 2.3 9.5 6.7 11.9 10.1 26.2 17.6 35.4 18.7 9.2 1 12.3-.8 21.8-12.4 17.6-21.6 22.6-27.4 33.9-39.8 27.5-30 31.7-33.5 34.4-28.4z"/><path d="M365.6 212.5c-10.1 3.6-17.1 17.5-13.4 26.5 5.5 13 20.2 18.4 31.3 11.5 6.4-4 9.5-9.7 9.5-17.7 0-10.1-6.2-18.4-15.6-20.7-5.4-1.4-7-1.3-11.8.4zM157.5 230.5c-.5.2-2.2.6-3.8.9-4.2 1-10.2 7-12.7 12.8-4.8 11.1-.9 23.3 8.9 28.5 5.1 2.7 14.2 3.1 19.4.9 9.9-4.1 15.5-19 11.1-29.4-2.9-7.2-9.9-12.4-17.9-13.5-2.2-.3-4.4-.4-5-.2zM311 232.7c0 1.6-1 4.9-2.2 7.3-5.7 11.2-23.9 16.2-35.7 9.9-2-1-3.9-1.9-4.3-1.9-.4 0-2.8 1.9-5.5 4.2-2.6 2.2-6.6 4.9-8.8 5.9-5.7 2.6-15.6 2.5-21.2-.2-4.8-2.3-11-10-11.9-14.9-1.1-5-3.3-1.6-4 6.1-.6 6-.4 6.7 2.6 11.2 1.8 2.7 4.9 6.2 7 7.8 3.6 2.9 3.7 3.1 4.3 11.7.4 4.8 1.8 14.7 3.2 22 5.3 28.4 9 38.3 18.2 48.8 7.9 9 14.4 12.6 23.1 12.6 14.5 0 23.9-11.4 28.7-34.6 2.7-13.2 4.1-48.1 2.4-60.4l-1-7.3 3.9-4.3c5-5.5 5.9-7.1 6.6-12.6.4-3.1 0-5.9-1.2-8.9-2-5.3-4.2-6.5-4.2-2.4zM283.8 267h8.2v23.4c0 31.1-2.7 45.7-10.2 54.2-4.8 5.4-9.6 4.3-17.6-3.8-5.4-5.7-9.4-15.8-13.3-34.3-2.9-13.5-5.1-31.3-3.9-31.9.3-.2 3-1.1 6-1.9 3.1-.9 7.7-3.2 10.3-5 4.6-3.3 5-3.4 8.5-2.1 2 .7 7.4 1.3 12 1.4z"/></svg>